# Created by DicomWS program.
# Triangulation:
# Number of triangles = 20, number of vertices = 12
v 0.850650808352 -0.525731112119 0
v 0.850650808352 0.525731112119 0
v -0.850650808352 0.525731112119 0
v -0.850650808352 -0.525731112119 0
v 0.525731112119 0 0.850650808352
v 0.525731112119 0 -0.850650808352
v -0.525731112119 0 -0.850650808352
v -0.525731112119 0 0.850650808352
v 0 -0.850650808352 -0.525731112119
v 0 0.850650808352 -0.525731112119
v 0 0.850650808352 0.525731112119
v 0 -0.850650808352 0.525731112119
f 1 6 2
f 1 2 5
f 1 5 12
f 1 12 9
f 1 9 6
f 3 4 8
f 3 8 11
f 3 11 10
f 3 10 7
f 3 7 4
f 2 10 11
f 2 11 5
f 5 11 8
f 5 8 12
f 4 12 8
f 4 9 12
f 4 7 9
f 6 9 7
f 6 7 10
f 2 6 10
