# Blender 5.0.1
# www.blender.org
mtllib Tetr_Right.mtl
o Cone
v 0.000000 1.845000 -1.000000
v 0.866025 1.845000 0.500000
v -0.866025 1.845000 0.500000
v 0.000000 3.155000 0.000000
vn 0.8091 0.3566 -0.4671
vn -0.0000 -1.0000 -0.0000
vn -0.0000 0.3566 0.9343
vn -0.8091 0.3566 -0.4671
vt 0.250000 0.490000
vt 0.250000 0.250000
vt 0.457846 0.130000
vt 0.750000 0.490000
vt 0.957846 0.130000
vt 0.542154 0.130000
vt 0.042154 0.130000
s 0
f 1/1/1 4/2/1 2/3/1
f 1/4/2 2/5/2 3/6/2
f 2/3/3 4/2/3 3/7/3
f 3/7/4 4/2/4 1/1/4
